<svg xmlns="http://www.w3.org/2000/svg" width="1800" height="1100" viewBox="0 0 1800 1100" role="img" aria-label="Modern technology workspace with dashboards and automation panels">
  <rect width="1800" height="1100" fill="#F8FAFC"/>
  <rect x="1020" y="0" width="780" height="1100" fill="#0F172A"/>
  <path d="M0 850 C310 650 490 980 770 760 C1040 548 1240 662 1800 360 L1800 1100 L0 1100 Z" fill="#DBEAFE"/>
  <path d="M1040 0 L1800 0 L1800 320 C1530 420 1300 470 1040 442 Z" fill="#14B8A6" opacity="0.22"/>
  <g transform="translate(1100 180)">
    <rect width="520" height="350" rx="8" fill="#FFFFFF" opacity="0.96"/>
    <rect x="32" y="34" width="190" height="18" rx="4" fill="#0F172A"/>
    <rect x="32" y="82" width="456" height="2" fill="#E2E8F0"/>
    <rect x="32" y="116" width="134" height="88" rx="6" fill="#EFF6FF"/>
    <rect x="194" y="116" width="134" height="88" rx="6" fill="#ECFDF5"/>
    <rect x="354" y="116" width="134" height="88" rx="6" fill="#F8FAFC"/>
    <path d="M50 270 C102 228 132 294 180 244 C232 190 288 268 342 218 C398 166 424 212 478 182" fill="none" stroke="#2563EB" stroke-width="10" stroke-linecap="round"/>
    <circle cx="50" cy="270" r="8" fill="#14B8A6"/>
    <circle cx="180" cy="244" r="8" fill="#14B8A6"/>
    <circle cx="342" cy="218" r="8" fill="#14B8A6"/>
    <circle cx="478" cy="182" r="8" fill="#14B8A6"/>
  </g>
  <g transform="translate(875 585)">
    <rect width="430" height="230" rx="8" fill="#FFFFFF" opacity="0.94"/>
    <rect x="28" y="30" width="110" height="16" rx="4" fill="#14B8A6"/>
    <rect x="28" y="72" width="374" height="1.5" fill="#E2E8F0"/>
    <rect x="30" y="108" width="72" height="78" rx="5" fill="#DBEAFE"/>
    <rect x="130" y="88" width="72" height="98" rx="5" fill="#BFDBFE"/>
    <rect x="230" y="130" width="72" height="56" rx="5" fill="#99F6E4"/>
    <rect x="330" y="68" width="72" height="118" rx="5" fill="#2563EB"/>
  </g>
  <g transform="translate(250 220)">
    <rect width="560" height="410" rx="8" fill="#FFFFFF" opacity="0.92"/>
    <rect x="38" y="38" width="190" height="22" rx="5" fill="#0F172A"/>
    <rect x="38" y="90" width="484" height="2" fill="#E2E8F0"/>
    <rect x="38" y="130" width="220" height="52" rx="6" fill="#EFF6FF"/>
    <rect x="302" y="130" width="220" height="52" rx="6" fill="#F8FAFC"/>
    <rect x="38" y="214" width="484" height="38" rx="5" fill="#F8FAFC"/>
    <rect x="38" y="274" width="484" height="38" rx="5" fill="#ECFDF5"/>
    <rect x="38" y="334" width="484" height="38" rx="5" fill="#F8FAFC"/>
    <circle cx="496" cy="156" r="12" fill="#14B8A6"/>
    <circle cx="496" cy="234" r="9" fill="#2563EB"/>
    <circle cx="496" cy="294" r="9" fill="#14B8A6"/>
    <circle cx="496" cy="354" r="9" fill="#2563EB"/>
  </g>
  <g opacity="0.45" stroke="#2563EB" stroke-width="3" fill="none">
    <path d="M750 290 C910 250 940 420 1100 370"/>
    <path d="M690 640 C830 710 910 620 1012 692"/>
    <path d="M1298 606 C1460 626 1510 510 1600 476"/>
  </g>
</svg>
